<?xml version="1.0" encoding="utf-8"?>
<!-- Generator: Adobe Illustrator 21.0.0, SVG Export Plug-In . SVG Version: 6.00 Build 0)  -->
<svg version="1.1" id="Layer_1" xmlns="http://www.w3.org/2000/svg" xmlns:xlink="http://www.w3.org/1999/xlink" x="0px" y="0px"
	 viewBox="0 0 140 140" style="enable-background:new 0 0 140 140;" xml:space="preserve">
<style type="text/css">
	.st0{fill:#00CCC6;}
	.st1{fill:#FFE1F8;}
	.st2{fill:#FFFFFF;}
	.st3{fill:#113A52;}
</style>
<g>
	<g>
		<path class="st0" d="M79.1,115.4c-25.2,0-45.8-20.5-45.8-45.8c0-25.2,20.5-45.8,45.8-45.8c25.2,0,45.8,20.5,45.8,45.8
			C124.8,94.8,104.3,115.4,79.1,115.4z M79.1,25c-24.6,0-44.6,20-44.6,44.6s20,44.6,44.6,44.6c24.6,0,44.6-20,44.6-44.6
			S103.7,25,79.1,25z"/>
	</g>
	<g>
		<path class="st0" d="M79.3,123h-0.2c-7.1,0-13.9-1.4-20.4-4c-0.3-0.1-0.4-0.5-0.3-0.8c0.1-0.3,0.5-0.4,0.8-0.3
			c6.3,2.6,13.1,4,20,4h0.2c0.3,0,0.6,0.3,0.6,0.6C79.9,122.7,79.6,123,79.3,123z M99.5,118.9c-0.2,0-0.4-0.1-0.5-0.4
			c-0.1-0.3,0-0.6,0.3-0.8c6.3-2.7,12-6.5,16.9-11.4c0.2-0.2,0.6-0.2,0.8,0c0.2,0.2,0.2,0.6,0,0.8c-5,5-10.8,8.9-17.3,11.6
			C99.6,118.9,99.5,118.9,99.5,118.9z M41.7,107.6c-0.1,0-0.3-0.1-0.4-0.2c-5-5-8.9-10.8-11.6-17.3c-0.1-0.3,0-0.6,0.3-0.8
			c0.3-0.1,0.6,0,0.8,0.3c2.6,6.3,6.5,12,11.3,16.9c0.2,0.2,0.2,0.6,0,0.8C42,107.5,41.9,107.6,41.7,107.6z M127.9,90.2
			c-0.1,0-0.1,0-0.2,0c-0.3-0.1-0.4-0.5-0.3-0.8c2.6-6.3,3.9-13,3.9-19.8l0-0.2c0-0.3,0.3-0.6,0.6-0.6s0.6,0.3,0.6,0.6l0,0.2
			c0,7-1.3,13.8-4,20.3C128.4,90.1,128.2,90.2,127.9,90.2z M26.3,70.2c-0.3,0-0.6-0.2-0.6-0.6v-0.1c0-7.1,1.4-13.9,4-20.4
			c0.1-0.3,0.5-0.4,0.8-0.3c0.3,0.1,0.4,0.5,0.3,0.8c-2.6,6.3-3.9,13-3.9,19.9C26.8,69.9,26.6,70.2,26.3,70.2z M127.8,49.8
			c-0.2,0-0.4-0.1-0.5-0.4c-2.6-6.3-6.5-12-11.4-16.9c-0.2-0.2-0.2-0.6,0-0.8c0.2-0.2,0.6-0.2,0.8,0c5,5,8.9,10.8,11.6,17.3
			c0.1,0.3,0,0.6-0.3,0.8C127.9,49.8,127.9,49.8,127.8,49.8z M41.7,32.9c-0.1,0-0.3-0.1-0.4-0.2c-0.2-0.2-0.2-0.6,0-0.8
			c5-5,10.8-8.9,17.3-11.6c0.3-0.1,0.6,0,0.8,0.3c0.1,0.3,0,0.6-0.3,0.8c-6.3,2.6-12,6.5-16.9,11.4C42,32.9,41.8,32.9,41.7,32.9z
			 M99.2,21.4c-0.1,0-0.1,0-0.2,0c-6.3-2.6-13-3.9-19.9-3.9c-0.3,0-0.6-0.3-0.6-0.6c0-0.3,0.2-0.6,0.5-0.6h0.1c7,0,13.9,1.3,20.3,4
			c0.3,0.1,0.4,0.5,0.3,0.8C99.6,21.2,99.4,21.4,99.2,21.4z"/>
	</g>
	<g>
		<path class="st0" d="M24.8,70.2H2.2c-0.3,0-0.6-0.3-0.6-0.6c0-0.3,0.3-0.6,0.6-0.6h22.5c0.3,0,0.6,0.3,0.6,0.6
			C25.3,69.9,25.1,70.2,24.8,70.2z"/>
	</g>
</g>
<circle class="st1" cx="79" cy="70" r="41"/>
<g>
	<g>
		<rect x="91.7" y="46.4" class="st2" width="10.2" height="41.7"/>
		<rect x="73.1" y="55.4" class="st2" width="10.2" height="32.7"/>
		<rect x="55.8" y="63.4" class="st2" width="10.2" height="24.7"/>
	</g>
	<path class="st3" d="M91.7,45.2c-0.6,0-1.1,0.5-1.1,1.2v41.7c0,0.7,0.5,1.2,1.1,1.2h10.2c0.6,0,1.1-0.5,1.1-1.2V46.4
		c0-0.7-0.5-1.2-1.1-1.2H91.7z M100.8,86.9h-7.9V47.6h7.9V86.9z"/>
	<path class="st3" d="M73.1,54.2c-0.6,0-1.1,0.5-1.1,1.2v32.7c0,0.7,0.5,1.2,1.1,1.2h10.2c0.6,0,1.1-0.5,1.1-1.2V55.4
		c0-0.7-0.5-1.2-1.1-1.2H73.1z M82.2,86.9h-7.9V56.6h7.9V86.9z"/>
	<path class="st3" d="M55.8,89.3H66c0.6,0,1.1-0.5,1.1-1.2V63.4c0-0.7-0.5-1.2-1.1-1.2H55.8c-0.6,0-1.1,0.5-1.1,1.2v24.7
		C54.7,88.8,55.2,89.3,55.8,89.3z M57,64.6h7.9v22.3H57V64.6z"/>
	<path class="st3" d="M109.7,93.6H49V43.8c0-0.7-0.5-1.2-1.1-1.2c-0.6,0-1.1,0.5-1.1,1.2v51c0,0.7,0.5,1.2,1.1,1.2h61.8
		c0.6,0,1.1-0.5,1.1-1.2C110.8,94.1,110.3,93.6,109.7,93.6z"/>
	<path class="st3" d="M85.6,49.3c0.1,0,0.2,0,0.3,0c0.5,0,1-0.4,1.1-0.9l1.7-7.8c0,0,0,0,0,0c0-0.1,0-0.3,0-0.4c0,0,0,0,0,0
		c0,0,0,0,0,0c0-0.1-0.1-0.2-0.1-0.4c0,0,0-0.1-0.1-0.1c-0.1-0.1-0.1-0.2-0.2-0.2c0,0,0,0-0.1-0.1c-0.1-0.1-0.2-0.1-0.3-0.2L80.9,37
		c-0.6-0.2-1.2,0.2-1.4,0.8c-0.2,0.6,0.2,1.3,0.8,1.5l4.6,1.4C72.4,49.1,57.7,51,57.6,51c-0.6,0.1-1,0.7-1,1.3
		c0.1,0.6,0.5,1.1,1.1,1.1c0,0,0.1,0,0.1,0c0.6-0.1,15.2-1.9,28-10.4l-1.1,4.9C84.6,48.5,85,49.2,85.6,49.3z"/>
</g>
</svg>
