<?xml version="1.0" encoding="utf-8"?>
<!-- Generator: Adobe Illustrator 21.0.0, SVG Export Plug-In . SVG Version: 6.00 Build 0)  -->
<svg version="1.1" id="Layer_1" xmlns="http://www.w3.org/2000/svg" xmlns:xlink="http://www.w3.org/1999/xlink" x="0px" y="0px"
	 viewBox="0 0 95 37.5" style="enable-background:new 0 0 95 37.5;" xml:space="preserve">
<style type="text/css">
	.st0{fill:none;stroke:#000000;stroke-width:5;stroke-miterlimit:10;}
	.st1{fill:none;stroke:#320947;stroke-width:5;stroke-miterlimit:10;}
	.st2{fill:#320947;}
</style>
<path class="st0" d="M40.8,19.5"/>
<g>
	<path class="st1" d="M47.2,37.5v-8c2,1.1,4.3,1.7,6.8,1.7c7.9,0,14.2-6.4,14.2-14.3S61.9,2.6,54,2.6S39.8,9,39.8,16.9v17v3.6"/>
	<g>
		<ellipse class="st1" cx="18.2" cy="18.3" rx="15.7" ry="15.8"/>
		<polygon class="st2" points="30.5,31.6 24.1,32.9 29.5,37.5 35.4,34.5 		"/>
	</g>
	<g>
		<path class="st1" d="M67.5,6.4C69.5,5,71.8,4,74.3,3.6c8.3-1.3,16.1,3.9,18.2,11.8"/>
		<path class="st1" d="M92.1,24.6c-2.2,5.5-7.4,9.6-13.7,10.1c-5,0.4-9.6-1.5-12.8-4.8"/>
	</g>
</g>
</svg>
