<?xml version="1.0" encoding="utf-8"?>
<!-- Generator: Adobe Illustrator 21.0.0, SVG Export Plug-In . SVG Version: 6.00 Build 0)  -->
<svg version="1.1" id="Layer_1" xmlns="http://www.w3.org/2000/svg" xmlns:xlink="http://www.w3.org/1999/xlink" x="0px" y="0px"
	 viewBox="0 0 400 400" style="enable-background:new 0 0 400 400;" xml:space="preserve">
<style type="text/css">
	.st0{opacity:0.5;fill:#FFFFFF;}
	.st1{fill:#FFFFFF;}
	.st2{fill:#F8EC32;}
	.st3{fill:#294266;}
	.st4{font-family:'Cairo-Regular';}
	.st5{font-size:44.5913px;}
	.st6{fill:#43B4E0;}
	.st7{fill:#F05A29;}
	.st8{fill:#4378E0;}
	.st9{fill:#294881;}
	.st10{fill:#DE3F18;}
</style>
<g>
	<g>
		<polygon class="st0" points="318.6,317 201.8,335.2 79.6,317 64.1,197.9 79.6,81.5 202.7,63.3 318.6,81.5 336.8,199.7 		"/>
		<path class="st1" d="M318.6,81.5L202.7,63.3L79.6,81.5L64.1,197.9L79.6,317l122.2,18.2L318.6,317l18.2-117.3L318.6,81.5z
			 M313.3,311.7l-111.5,17.4L85,311.7L70.2,197.9L85,86.8l117.5-17.4l110.7,17.4l17.4,112.9L313.3,311.7z"/>
		<g>
			<path class="st1" d="M200,92c9,0,17.4-3.5,23.7-9.8c13.1-13.1,13.1-34.3,0-47.4C217.4,28.5,209,25,200,25c-9,0-17.4,3.5-23.7,9.8
				c-13.1,13.1-13.1,34.3,0,47.4C182.6,88.6,191,92,200,92z"/>
			<path class="st1" d="M84.8,223.7c13.1-13.1,13.1-34.3,0-47.4c-6.3-6.3-14.8-9.8-23.7-9.8c-9,0-17.4,3.5-23.7,9.8
				c-13.1,13.1-13.1,34.3,0,47.4c6.3,6.3,14.8,9.8,23.7,9.8C70,233.5,78.4,230,84.8,223.7z"/>
			<path class="st1" d="M362.7,176.3c-6.3-6.3-14.8-9.8-23.7-9.8c-9,0-17.4,3.5-23.7,9.8c-13.1,13.1-13.1,34.3,0,47.4
				c6.3,6.3,14.8,9.8,23.7,9.8c9,0,17.4-3.5,23.7-9.8C375.8,210.6,375.8,189.4,362.7,176.3z"/>
			<path class="st1" d="M81.7,279.8c-9,0-17.4,3.5-23.7,9.8c-13.1,13.1-13.1,34.3,0,47.4c6.3,6.3,14.8,9.8,23.7,9.8
				c9,0,17.4-3.5,23.7-9.8c6.3-6.3,9.8-14.8,9.8-23.7c0-9-3.5-17.4-9.8-23.7C99.1,283.3,90.7,279.8,81.7,279.8z"/>
			<path class="st1" d="M81.7,120.2c9,0,17.4-3.5,23.7-9.8c13.1-13.1,13.1-34.3,0-47.4c-6.3-6.3-14.8-9.8-23.7-9.8
				c-9,0-17.4,3.5-23.7,9.8C44.9,76,44.9,97.3,58,110.3C64.3,116.7,72.7,120.2,81.7,120.2z"/>
			<path class="st1" d="M318.3,279.8c-9,0-17.4,3.5-23.7,9.8c-6.3,6.3-9.8,14.8-9.8,23.7c0,9,3.5,17.4,9.8,23.7
				c6.3,6.3,14.8,9.8,23.7,9.8c9,0,17.4-3.5,23.7-9.8c6.3-6.3,9.8-14.8,9.8-23.7c0-9-3.5-17.4-9.8-23.7
				C335.7,283.3,327.3,279.8,318.3,279.8z"/>
			<path class="st1" d="M318.3,120.2c9,0,17.4-3.5,23.7-9.8c13.1-13.1,13.1-34.3,0-47.4c-6.3-6.3-14.8-9.8-23.7-9.8
				c-9,0-17.4,3.5-23.7,9.8c-13.1,13.1-13.1,34.3,0,47.4C300.9,116.7,309.3,120.2,318.3,120.2z"/>
			<polygon class="st1" points="319.6,197.3 206.4,197.3 318.5,85.4 314.7,81.6 202.7,193.6 202.7,80.5 197.3,80.5 197.3,193.6 
				85.3,81.6 81.5,85.4 193.6,197.3 80.4,197.3 80.4,202.7 193.6,202.7 81.5,314.6 85.3,318.3 197.3,206.4 197.3,319.5 202.7,319.5 
				202.7,206.4 314.7,318.3 318.5,314.6 206.4,202.7 319.6,202.7 			"/>
			<polygon class="st1" points="160.2,268.9 120.3,200 160.2,131.1 239.8,131.1 279.7,200 239.8,268.9 			"/>
			<polygon class="st2" points="162.8,264.4 125.6,200 162.8,135.6 237.2,135.6 274.4,200 237.2,264.4 			"/>
			<text transform="matrix(1.0009 0 0 1 157.2983 217.5967)" class="st3 st4 st5">QRC</text>
			<g>
				<g>
					<ellipse class="st2" cx="320.3" cy="76.4" rx="11.3" ry="11.3"/>
					<path class="st1" d="M320.3,87.7c-1.3,0-2.6-0.2-3.7-0.6l-0.2,0.3l1.9,3.7h3.9l1.9-3.7l-0.2-0.3
						C322.9,87.5,321.6,87.7,320.3,87.7z"/>
					<polygon class="st6" points="322.3,91 318.4,91 314.4,103.7 320.3,108.1 326.5,103.7 					"/>
					<path class="st7" d="M329.5,83c-2,2.9-5.4,4.7-9.2,4.7c-3.8,0-7.1-1.9-9.2-4.7c-4.4,2.4-7.4,6.6-7.4,11.3v5.1
						c0,0.9,0.1,1.7,0.3,2.5c3.3,0.9,6.7,1.5,10.3,1.8l4-12.7h3.9l4.2,12.6c3.5-0.3,6.9-0.9,10.1-1.8c0.2-0.8,0.3-1.7,0.3-2.5v-5.1
						C336.9,89.6,333.9,85.4,329.5,83z"/>
					<path class="st8" d="M320.3,87.7c-1.3,0-2.6-0.2-3.7-0.6l-0.2,0.3l1.9,3.7h3.9l1.9-3.7l-0.2-0.3
						C322.9,87.5,321.6,87.7,320.3,87.7z"/>
				</g>
				<path class="st9" d="M303.4,102.5l0.4,0.1c3.1,0.9,6.5,1.5,10.1,1.8l6.3,4.6l6.5-4.6c3.5-0.4,6.9-1,10-1.8l0.4-0.1l0.1-0.5
					c0.2-0.9,0.3-1.8,0.3-2.7v-5.1c0-4.6-2.6-8.9-7.1-11.6c1.1-1.8,1.8-4,1.8-6.3c0-6.6-5.4-12.1-12.1-12.1
					c-6.7,0-12.1,5.4-12.1,12.1c0,2.3,0.7,4.5,1.8,6.3c-4.4,2.7-7.1,7-7.1,11.6v5.1c0,0.9,0.1,1.8,0.3,2.7L303.4,102.5z M318.8,88.3
					c0.1,0,0.2,0,0.3,0c0.4,0,0.9,0.1,1.3,0.1c0.4,0,0.9,0,1.3-0.1c0.1,0,0.2,0,0.3,0c0.3,0,0.7-0.1,1-0.2l-1.1,2.1h-2.9l-1.1-2.1
					C318.1,88.3,318.4,88.3,318.8,88.3z M320.3,107.1l-5.1-3.7l3.7-11.6h2.8l3.8,11.6L320.3,107.1z M336.1,94.3v5.1
					c0,0.6-0.1,1.2-0.2,1.9c-2.8,0.7-5.8,1.3-8.9,1.6l-3.9-11.7l1.9-3.6c0.2-0.1,0.3-0.1,0.4-0.2c0.1,0,0.1-0.1,0.2-0.1
					c0.3-0.2,0.6-0.3,1-0.5c0.1,0,0.1-0.1,0.2-0.1c0.3-0.2,0.6-0.4,0.9-0.7c0,0,0.1-0.1,0.1-0.1c0.7-0.6,1.3-1.2,1.9-1.9
					C333.7,86.4,336.1,90.2,336.1,94.3z M320.3,65.9c5.8,0,10.5,4.7,10.5,10.5c0,2.2-0.7,4.2-1.8,5.8l-0.1,0.2c0,0-0.1,0.1-0.1,0.1
					c-0.2,0.3-0.5,0.6-0.7,0.9c0,0-0.1,0.1-0.1,0.1c-0.3,0.3-0.5,0.5-0.8,0.8c0,0,0,0,0,0c-0.6,0.5-1.3,1-2,1.4c0,0,0,0,0,0
					c-0.3,0.2-0.7,0.3-1,0.4c-0.1,0-0.1,0-0.2,0.1c-0.3,0.1-0.6,0.2-0.9,0.3c0,0-0.1,0-0.1,0c-0.1,0-0.3,0.1-0.4,0.1
					c-0.2,0-0.4,0.1-0.7,0.1c-0.1,0-0.3,0-0.4,0.1c-0.3,0-0.6,0-0.9,0.1c-0.1,0-0.2,0-0.3,0c-0.3,0-0.6,0-0.9-0.1
					c-0.1,0-0.3,0-0.4-0.1c-0.2,0-0.5-0.1-0.7-0.1c-0.1,0-0.2,0-0.3-0.1c0,0-0.1,0-0.1,0c-0.3-0.1-0.6-0.2-0.9-0.3
					c-0.1,0-0.1,0-0.2-0.1c-0.3-0.1-0.7-0.3-1-0.5c0,0,0,0,0,0c-0.7-0.4-1.4-0.8-2-1.4c0,0,0,0-0.1-0.1c-0.3-0.2-0.5-0.5-0.8-0.8
					c0-0.1-0.1-0.1-0.1-0.2c-0.2-0.3-0.5-0.5-0.7-0.8c-0.1-0.1-0.1-0.2-0.2-0.3l-0.1-0.1c-1.1-1.7-1.8-3.7-1.8-5.8
					C309.8,70.6,314.5,65.9,320.3,65.9z M304.6,94.3c0-4.1,2.4-7.9,6.4-10.3c0.6,0.7,1.2,1.3,1.9,1.9c0,0,0.1,0.1,0.1,0.1
					c0.3,0.2,0.6,0.5,0.9,0.7c0.1,0,0.1,0.1,0.2,0.1c0.3,0.2,0.6,0.4,1,0.5c0.1,0,0.1,0.1,0.2,0.1c0.1,0.1,0.3,0.1,0.4,0.2l1.9,3.6
					l-3.7,11.7c-3.2-0.3-6.2-0.9-9.1-1.6c-0.1-0.6-0.2-1.3-0.2-1.9V94.3z"/>
			</g>
			<g>
				<g>
					<rect x="329.3" y="299.4" class="st6" width="7.1" height="27.1"/>
					<rect x="316.4" y="305.3" class="st7" width="7.1" height="21.2"/>
					<rect x="304.4" y="310.4" class="st2" width="7.1" height="16"/>
				</g>
				<path class="st9" d="M329.3,298.6c-0.4,0-0.8,0.3-0.8,0.8v27.1c0,0.4,0.3,0.8,0.8,0.8h7.1c0.4,0,0.8-0.3,0.8-0.8v-27.1
					c0-0.4-0.3-0.8-0.8-0.8H329.3z M335.6,325.7h-5.5v-25.5h5.5V325.7z"/>
				<path class="st9" d="M316.4,304.5c-0.4,0-0.8,0.3-0.8,0.8v21.2c0,0.4,0.3,0.8,0.8,0.8h7.1c0.4,0,0.8-0.3,0.8-0.8v-21.2
					c0-0.4-0.3-0.8-0.8-0.8H316.4z M322.7,325.7h-5.5V306h5.5V325.7z"/>
				<path class="st9" d="M304.4,327.2h7.1c0.4,0,0.8-0.3,0.8-0.8v-16c0-0.4-0.3-0.8-0.8-0.8h-7.1c-0.4,0-0.8,0.3-0.8,0.8v16
					C303.6,326.9,303.9,327.2,304.4,327.2z M305.2,311.2h5.5v14.4h-5.5V311.2z"/>
				<path class="st9" d="M341.8,330h-42.2v-32.3c0-0.4-0.3-0.8-0.8-0.8c-0.4,0-0.8,0.3-0.8,0.8v33.1c0,0.4,0.3,0.8,0.8,0.8h43
					c0.4,0,0.8-0.3,0.8-0.8C342.6,330.4,342.2,330,341.8,330z"/>
				<path class="st9" d="M325,301.3c0.1,0,0.1,0,0.2,0c0.4,0,0.7-0.2,0.8-0.6l1.2-5.1c0,0,0,0,0,0c0-0.1,0-0.2,0-0.3c0,0,0,0,0,0
					c0,0,0,0,0,0c0-0.1,0-0.2-0.1-0.2c0,0,0,0,0-0.1c0-0.1-0.1-0.1-0.1-0.2c0,0,0,0,0,0c-0.1,0-0.1-0.1-0.2-0.1l-4.8-1.4
					c-0.4-0.1-0.8,0.1-1,0.5c-0.1,0.4,0.1,0.8,0.5,1l3.2,0.9c-8.7,5.4-18.9,6.6-19,6.6c-0.4,0-0.7,0.4-0.7,0.9
					c0,0.4,0.4,0.7,0.8,0.7c0,0,0.1,0,0.1,0c0.5,0,10.6-1.2,19.4-6.7l-0.7,3.2C324.4,300.8,324.6,301.2,325,301.3z"/>
			</g>
			<g>
				<g>
					<path class="st2" d="M101.7,323.5c0,1.1-0.9,2-2.1,2H65.1c-1.2,0-2.1-0.9-2.1-2v-20.9c0-1.1,0.9-2,2.1-2h34.5
						c1.2,0,2.1,0.9,2.1,2V323.5z"/>
					<path class="st7" d="M99.6,300.7H65.1c-1.2,0-2.1,0.9-2.1,2l19.4,10.4l19.4-10.4C101.7,301.5,100.7,300.7,99.6,300.7z"/>
					<line class="st2" x1="75.2" y1="309.4" x2="63.5" y2="325.3"/>
					<line class="st2" x1="100.8" y1="325.3" x2="89.2" y2="309.4"/>
				</g>
				<path class="st9" d="M99.6,299.9H65.1c-1.6,0-2.9,1.2-2.9,2.7v0.5v20.4c0,1.5,1.3,2.7,2.9,2.7h34.5c1.6,0,2.9-1.2,2.9-2.7v-20.4
					v-0.5C102.5,301.1,101.2,299.9,99.6,299.9z M99.6,301.4c0.1,0,0.2,0,0.4,0c0,0,0.1,0,0.1,0c0.1,0,0.2,0.1,0.3,0.1c0,0,0,0,0,0
					c0.1,0.1,0.2,0.1,0.2,0.2c0,0,0,0,0,0.1c0.1,0.1,0.1,0.2,0.2,0.3c0,0,0,0,0,0l-18.5,10l-18.5-10c0,0,0,0,0,0
					c0-0.1,0.1-0.2,0.2-0.3c0,0,0,0,0-0.1c0.1-0.1,0.1-0.1,0.2-0.2c0,0,0,0,0,0c0.1-0.1,0.2-0.1,0.3-0.1c0,0,0.1,0,0.1,0
					c0.1,0,0.2,0,0.4,0H99.6z M74.1,309.5l-10.4,14.1c0,0,0-0.1,0-0.1v-19.6L74.1,309.5z M64.9,324.7l10.6-14.4l6.8,3.7l6.6-3.6
					l10.5,14.3H65.1C65,324.7,65,324.7,64.9,324.7z M100.9,323.5c0,0.1,0,0.3-0.1,0.4l-10.5-14.3l10.6-5.7V323.5z"/>
			</g>
			<g>
				<g>
					<ellipse class="st2" cx="69.6" cy="80.5" rx="6.2" ry="6.2"/>
				</g>
				<g>
					<ellipse class="st7" cx="95.1" cy="80.5" rx="6.2" ry="6.2"/>
				</g>
				<ellipse class="st6" cx="82.3" cy="98" rx="6.2" ry="6.2"/>
				<path class="st9" d="M82.3,105c-3.9,0-7-3.1-7-7c0-3.9,3.1-7,7-7c3.9,0,7,3.1,7,7C89.3,101.8,86.2,105,82.3,105z M82.3,92.5
					c-3,0-5.5,2.4-5.5,5.5c0,3,2.4,5.5,5.5,5.5c3,0,5.5-2.4,5.5-5.5C87.8,95,85.3,92.5,82.3,92.5z"/>
				<path class="st9" d="M69.6,87.5c0.5,0,1-0.1,1.5-0.2l5.1,8l1.3-0.8l-4.9-7.7c2.1-1,3.7-3.1,4-5.5h11.6c0.3,2.4,1.7,4.4,3.8,5.5
					l-4.7,7.4l1.3,0.8l4.9-7.7c0.5,0.1,1.1,0.2,1.7,0.2c3.9,0,7-3.1,7-7c0-3.9-3.1-7-7-7c-3.6,0-6.6,2.7-7,6.2H76.5
					c-0.4-3.5-3.4-6.2-7-6.2c-3.9,0-7,3.1-7,7C62.6,84.4,65.7,87.5,69.6,87.5z M95.1,75c3,0,5.5,2.4,5.5,5.5c0,3-2.4,5.5-5.5,5.5
					c-3,0-5.5-2.4-5.5-5.5C89.6,77.5,92.1,75,95.1,75z M69.6,75c3,0,5.5,2.4,5.5,5.5c0,3-2.4,5.5-5.5,5.5c-3,0-5.5-2.4-5.5-5.5
					C64.1,77.5,66.6,75,69.6,75z"/>
			</g>
			<g>
				<g>
					<g>
						<path class="st2" d="M357.8,222c0,1-0.8,1.7-1.9,1.7h-30.7c-1,0-1.9-0.8-1.9-1.7v-39.6c0-1,0.8-1.7,1.9-1.7H356
							c1,0,1.9,0.8,1.9,1.7V222z"/>
						<path class="st6" d="M355.2,189c0,1.2-0.9,2.1-2.1,2.1h-24.9c-1.2,0-2.1-0.9-2.1-2.1v-2.8c0-1.2,0.9-2.1,2.1-2.1h24.9
							c1.2,0,2.1,0.9,2.1,2.1V189z"/>
						<g>
							<path class="st7" d="M333.9,199.6c0,1-1,1.9-2.2,1.9h-3.4c-1.2,0-2.2-0.8-2.2-1.9v-2.5c0-1,1-1.9,2.2-1.9h3.4
								c1.2,0,2.2,0.8,2.2,1.9V199.6z"/>
							<path class="st7" d="M333.9,208.7c0,1-1,1.9-2.2,1.9h-3.4c-1.2,0-2.2-0.8-2.2-1.9v-2.5c0-1,1-1.9,2.2-1.9h3.4
								c1.2,0,2.2,0.8,2.2,1.9V208.7z"/>
							<path class="st7" d="M333.9,217.8c0,1-1,1.9-2.2,1.9h-3.4c-1.2,0-2.2-0.8-2.2-1.9v-2.5c0-1,1-1.9,2.2-1.9h3.4
								c1.2,0,2.2,0.8,2.2,1.9V217.8z"/>
							<path class="st7" d="M344.1,199.7c0,1-1,1.9-2.2,1.9h-3.4c-1.2,0-2.2-0.8-2.2-1.9v-2.5c0-1,1-1.9,2.2-1.9h3.4
								c1.2,0,2.2,0.8,2.2,1.9V199.7z"/>
							<path class="st7" d="M344.1,208.8c0,1-1,1.9-2.2,1.9h-3.4c-1.2,0-2.2-0.8-2.2-1.9v-2.5c0-1,1-1.9,2.2-1.9h3.4
								c1.2,0,2.2,0.8,2.2,1.9V208.8z"/>
							<path class="st7" d="M344.1,217.9c0,1-1,1.9-2.2,1.9h-3.4c-1.2,0-2.2-0.8-2.2-1.9v-2.5c0-1,1-1.9,2.2-1.9h3.4
								c1.2,0,2.2,0.8,2.2,1.9V217.9z"/>
							<path class="st7" d="M354.4,199.9c0,1-1,1.9-2.2,1.9h-3.4c-1.2,0-2.2-0.8-2.2-1.9v-2.5c0-1,1-1.9,2.2-1.9h3.4
								c1.2,0,2.2,0.8,2.2,1.9V199.9z"/>
							<path class="st7" d="M352.2,204.6h-3.4c-1.2,0-2.2,0.8-2.2,1.9v9.1v0.2v2.3c0,1,1,1.9,2.2,1.9h3.4c1.2,0,2.2-0.8,2.2-1.9
								v-2.3v-0.2v-9.1C354.4,205.4,353.4,204.6,352.2,204.6z"/>
						</g>
					</g>
					<polygon class="st9" points="352.9,212.6 351.1,212.6 351.1,210.8 350.1,210.8 350.1,212.6 348.3,212.6 348.3,213.6 
						350.1,213.6 350.1,215.4 351.1,215.4 351.1,213.6 352.9,213.6 					"/>
				</g>
				<path class="st9" d="M356,179.9h-30.7c-1.5,0-2.7,1.1-2.7,2.5V222c0,1.4,1.2,2.5,2.7,2.5H356c1.5,0,2.7-1.1,2.7-2.5v-39.6
					C358.6,181,357.4,179.9,356,179.9z M357.1,222c0,0.5-0.5,1-1.1,1h-30.7c-0.6,0-1.1-0.4-1.1-1v-39.6c0-0.5,0.5-1,1.1-1H356
					c0.6,0,1.1,0.4,1.1,1V222z"/>
				<path class="st9" d="M353.1,183.3h-24.9c-1.6,0-2.9,1.3-2.9,2.9v2.8c0,1.6,1.3,2.9,2.9,2.9h24.9c1.6,0,2.9-1.3,2.9-2.9v-2.8
					C356,184.6,354.7,183.3,353.1,183.3z M354.4,189c0,0.7-0.6,1.3-1.3,1.3h-24.9c-0.7,0-1.3-0.6-1.3-1.3v-2.8
					c0-0.7,0.6-1.3,1.3-1.3h24.9c0.7,0,1.3,0.6,1.3,1.3V189z"/>
				<path class="st9" d="M331.7,194.4h-3.4c-1.6,0-2.9,1.2-2.9,2.7v2.5c0,1.5,1.3,2.7,2.9,2.7h3.4c1.6,0,2.9-1.2,2.9-2.7v-2.5
					C334.6,195.6,333.3,194.4,331.7,194.4z M333.1,199.6c0,0.6-0.6,1.1-1.4,1.1h-3.4c-0.8,0-1.4-0.5-1.4-1.1v-2.5
					c0-0.6,0.6-1.1,1.4-1.1h3.4c0.8,0,1.4,0.5,1.4,1.1V199.6z"/>
				<path class="st9" d="M331.7,203.5h-3.4c-1.6,0-2.9,1.2-2.9,2.7v2.5c0,1.5,1.3,2.7,2.9,2.7h3.4c1.6,0,2.9-1.2,2.9-2.7v-2.5
					C334.6,204.7,333.3,203.5,331.7,203.5z M333.1,208.7c0,0.6-0.6,1.1-1.4,1.1h-3.4c-0.8,0-1.4-0.5-1.4-1.1v-2.5
					c0-0.6,0.6-1.1,1.4-1.1h3.4c0.8,0,1.4,0.5,1.4,1.1V208.7z"/>
				<path class="st9" d="M331.7,212.6h-3.4c-1.6,0-2.9,1.2-2.9,2.7v2.5c0,1.5,1.3,2.7,2.9,2.7h3.4c1.6,0,2.9-1.2,2.9-2.7v-2.5
					C334.6,213.8,333.3,212.6,331.7,212.6z M333.1,217.8c0,0.6-0.6,1.1-1.4,1.1h-3.4c-0.8,0-1.4-0.5-1.4-1.1v-2.5
					c0-0.6,0.6-1.1,1.4-1.1h3.4c0.8,0,1.4,0.5,1.4,1.1V217.8z"/>
				<path class="st9" d="M342,194.6h-3.4c-1.6,0-2.9,1.2-2.9,2.7v2.5c0,1.5,1.3,2.7,2.9,2.7h3.4c1.6,0,2.9-1.2,2.9-2.7v-2.5
					C344.9,195.8,343.6,194.6,342,194.6z M343.4,199.7c0,0.6-0.6,1.1-1.4,1.1h-3.4c-0.8,0-1.4-0.5-1.4-1.1v-2.5
					c0-0.6,0.6-1.1,1.4-1.1h3.4c0.8,0,1.4,0.5,1.4,1.1V199.7z"/>
				<path class="st9" d="M342,203.7h-3.4c-1.6,0-2.9,1.2-2.9,2.7v2.5c0,1.5,1.3,2.7,2.9,2.7h3.4c1.6,0,2.9-1.2,2.9-2.7v-2.5
					C344.9,204.9,343.6,203.7,342,203.7z M343.4,208.8c0,0.6-0.6,1.1-1.4,1.1h-3.4c-0.8,0-1.4-0.5-1.4-1.1v-2.5
					c0-0.6,0.6-1.1,1.4-1.1h3.4c0.8,0,1.4,0.5,1.4,1.1V208.8z"/>
				<path class="st9" d="M342,212.8h-3.4c-1.6,0-2.9,1.2-2.9,2.7v2.5c0,1.5,1.3,2.7,2.9,2.7h3.4c1.6,0,2.9-1.2,2.9-2.7v-2.5
					C344.9,213.9,343.6,212.8,342,212.8z M343.4,217.9c0,0.6-0.6,1.1-1.4,1.1h-3.4c-0.8,0-1.4-0.5-1.4-1.1v-2.5
					c0-0.6,0.6-1.1,1.4-1.1h3.4c0.8,0,1.4,0.5,1.4,1.1V217.9z"/>
				<path class="st9" d="M352.2,194.7h-3.4c-1.6,0-2.9,1.2-2.9,2.7v2.5c0,1.5,1.3,2.7,2.9,2.7h3.4c1.6,0,2.9-1.2,2.9-2.7v-2.5
					C355.2,195.9,353.9,194.7,352.2,194.7z M353.6,199.9c0,0.6-0.6,1.1-1.4,1.1h-3.4c-0.8,0-1.4-0.5-1.4-1.1v-2.5
					c0-0.6,0.6-1.1,1.4-1.1h3.4c0.8,0,1.4,0.5,1.4,1.1V199.9z"/>
				<path class="st9" d="M352.2,203.8h-3.4c-1.6,0-2.9,1.2-2.9,2.7v11.6c0,1.5,1.3,2.7,2.9,2.7h3.4c1.6,0,2.9-1.2,2.9-2.7v-11.6
					C355.2,205,353.9,203.8,352.2,203.8z M353.6,218.1c0,0.6-0.6,1.1-1.4,1.1h-3.4c-0.8,0-1.4-0.5-1.4-1.1v-11.6
					c0-0.6,0.6-1.1,1.4-1.1h3.4c0.8,0,1.4,0.5,1.4,1.1V218.1z"/>
			</g>
			<g>
				<polygon class="st7" points="57.7,218.5 61.5,219 61.6,203.3 57.9,200.4 				"/>
				<path class="st2" d="M57.9,185.6c0,0,1.2-1,3.6-0.3l0.1,18l-3.7-2.9V185.6z"/>
				<g>
					<path class="st9" d="M62.8,184.4v-2.9c0-0.5-0.4-0.9-0.9-0.9c-0.5,0-0.9,0.4-0.9,0.9v2.6c-0.8-0.1-1.6,0-2.4,0.3v-2.8
						c0-0.5-0.4-0.9-0.9-0.9c-0.5,0-0.9,0.4-0.9,0.9v3.5c-2.4,1.3-4.1,3.8-4.4,6.7c-0.3,3.4,1.3,6.6,4.4,9.3v16.5
						c-4.1-2-5.2-7.4-5.2-7.7c-0.1-0.5-0.5-0.8-1-0.7c-0.5,0.1-0.8,0.5-0.7,1c0,0.1,1.4,7.3,7,9.3v3.5c0,0.5,0.4,0.9,0.9,0.9
						c0.5,0,0.9-0.4,0.9-0.9v-3c0.3,0,0.7,0.1,1,0.1c0.2,0,0.4,0,0.6,0c0.3,0,0.5,0,0.8,0v2.9c0,0.5,0.4,0.9,0.9,0.9
						c0.5,0,0.9-0.4,0.9-0.9v-3.2c2.8-0.7,4.8-2.4,5.5-5c1-3.5-0.7-8.5-5.5-11.8v-16.5c3.2,1.3,5.3,4.9,5.3,5
						c0.2,0.4,0.8,0.6,1.2,0.3c0.4-0.2,0.6-0.8,0.3-1.2C69.5,190.1,66.9,185.7,62.8,184.4z M54.2,191.8c0.2-1.9,1.1-3.6,2.6-4.7
						v11.4C55,196.5,54,194.2,54.2,191.8z M59.7,218.2c-0.4,0-0.7-0.1-1.1-0.1v-15.8c0.6,0.4,1.2,0.8,1.8,1.1
						c0.2,0.1,0.4,0.2,0.6,0.3v14.4C60.6,218.2,60.2,218.2,59.7,218.2z M66.6,214.2c-0.5,1.9-1.9,3.1-3.8,3.7V205
						C66.2,207.8,67.4,211.5,66.6,214.2z M61,201.7c-0.9-0.5-1.7-1-2.4-1.6v-14c0,0,0.1,0,0.1,0c0.8-0.3,1.6-0.3,2.3-0.3V201.7z"/>
				</g>
			</g>
			<path class="st1" d="M200,307.9c-9,0-17.4,3.5-23.7,9.8c-13.1,13.1-13.1,34.3,0,47.4c6.3,6.3,14.8,9.8,23.7,9.8
				c9,0,17.4-3.5,23.7-9.8c6.3-6.3,9.8-14.8,9.8-23.7c0-9-3.5-17.4-9.8-23.7C217.4,311.4,209,307.9,200,307.9z"/>
			<g>
				<g>
					<ellipse class="st2" cx="200" cy="336.5" rx="17.4" ry="17.3"/>
					<path class="st7" d="M200,353.8c-2.9,0-5.6-0.7-8-2v8.9c0,1.5,1.2,2.7,2.7,2.7h10.7c1.5,0,2.7-1.2,2.7-2.7v-8.9
						C205.6,353.1,202.9,353.8,200,353.8z"/>
					<path class="st6" d="M197,363.5c0,1.6,1.3,2.8,2.9,2.8c1.6,0,2.9-1.3,2.9-2.8H197z"/>
				</g>
				<path class="st9" d="M200,318.4c-10,0-18.1,8.1-18.1,18.1c0,6.8,3.8,12.7,9.3,15.8v8.5c0,1.9,1.5,3.4,3.4,3.4h1.7
					c0.4,1.6,1.9,2.8,3.6,2.8c1.7,0,3.2-1.2,3.6-2.8h1.8c1.9,0,3.4-1.5,3.4-3.4v-8.5c5.6-3.1,9.3-9,9.3-15.8
					C218.1,326.5,210,318.4,200,318.4z M207.2,358.5c-7.2,2.8-12.9,0.7-14.5,0v-2.1c1.4,0.5,3.9,1.3,7.1,1.3c2.2,0,4.7-0.3,7.4-1.3
					V358.5z M199.9,365.5c-0.9,0-1.6-0.5-1.9-1.3h3.9C201.6,365,200.8,365.5,199.9,365.5z M205.3,362.7h-1.7h-7.4h-1.6
					c-1,0-1.9-0.9-1.9-1.9v-0.6c1.4,0.5,3.9,1.3,7.1,1.3c2.2,0,4.7-0.3,7.4-1.3v0.6C207.2,361.8,206.4,362.7,205.3,362.7z
					 M207.2,354.8c-7.2,2.8-12.9,0.7-14.5,0v-1.6c0.3,0.1,0.6,0.2,0.8,0.3c0,0,0,0,0,0c0.2,0.1,0.5,0.2,0.7,0.3c0.1,0,0.1,0,0.2,0.1
					c0.2,0.1,0.4,0.1,0.6,0.2c0.1,0,0.2,0.1,0.3,0.1c0.1,0,0.2,0.1,0.4,0.1c0.2,0,0.4,0.1,0.5,0.1c0.1,0,0.1,0,0.2,0
					c1.1,0.2,2.3,0.3,3.5,0.3c1.2,0,2.4-0.1,3.5-0.3c0.1,0,0.1,0,0.2,0c0.2,0,0.4-0.1,0.5-0.1c0.1,0,0.3-0.1,0.4-0.1
					c0.1,0,0.2-0.1,0.3-0.1c0.2-0.1,0.4-0.1,0.6-0.2c0.1,0,0.1,0,0.2-0.1c0.2-0.1,0.5-0.2,0.7-0.3c0,0,0,0,0,0
					c0.3-0.1,0.6-0.2,0.8-0.3V354.8z M198.9,337.3c0.7,0.6,1.6,0.9,2.4,1.1c-0.3,3.8-0.9,12.2-1,14.6c-0.1,0-0.2,0-0.4,0
					c-0.3,0-0.5,0-0.8,0c-0.2-2.4-1-9.5-2.6-14.3C197.5,338.4,198.3,337.9,198.9,337.3z M198.5,331.4c0.1-0.2,0.3-0.4,0.8-0.4
					c0.1,0,0.2,0,0.3,0c0.3,0.1,0.7,0.2,0.7,0.9c0,0.9-0.5,2-1.3,3.1C198.2,333.7,198,332.2,198.5,331.4z M207.9,351l-0.1,0.1
					c-0.4,0.2-0.8,0.4-1.2,0.6c-0.1,0.1-0.3,0.1-0.4,0.2c-0.4,0.2-0.8,0.3-1.2,0.4c0,0-0.1,0-0.1,0c-0.5,0.1-0.9,0.3-1.4,0.4
					c-0.1,0-0.2,0-0.2,0.1c-0.4,0.1-0.9,0.1-1.3,0.2c0.2-2.6,0.7-10.7,1-14.4c0.7,0,1.3-0.1,1.9-0.3c1.4-0.5,2.3-1.4,2.4-2.5
					c0.1-1.2-0.6-2.1-1.7-2.2c-1.3-0.1-3.3,1-3.9,3.4c-0.6-0.1-1.1-0.3-1.6-0.7c1.1-1.4,1.8-3,1.8-4.3c0-1.3-0.7-2.2-1.9-2.4
					c-1.2-0.2-2.2,0.2-2.8,1.2c-0.8,1.4-0.4,3.8,0.8,5.5c-0.5,0.5-1.1,0.9-1.8,1.1c-0.5-1.2-1.1-2.2-1.8-2.6c-1.5-1-2.4-0.6-2.8-0.3
					c-0.7,0.6-0.8,1.7-0.2,2.7c0.5,1.1,1.9,2.2,3.9,2c1.2,3.6,2.1,9.5,2.5,13.8c-0.3,0-0.6-0.1-0.9-0.1c-0.1,0-0.2,0-0.2-0.1
					c-0.5-0.1-1-0.2-1.4-0.4c0,0-0.1,0-0.1,0c-0.4-0.1-0.8-0.3-1.2-0.4c-0.1-0.1-0.3-0.1-0.4-0.2c-0.4-0.2-0.8-0.4-1.2-0.6l-0.1-0.1
					c-5.1-2.8-8.6-8.3-8.6-14.5c0-9.1,7.4-16.6,16.6-16.6c9.1,0,16.6,7.4,16.6,16.6C216.6,342.8,213.1,348.2,207.9,351z M203.2,337
					c0.4-1.4,1.5-1.9,2.1-1.9c0,0,0.1,0,0.1,0c0.2,0,0.4,0.1,0.3,0.5c-0.1,0.7-1,1.1-1.3,1.2C203.9,336.9,203.6,337,203.2,337z
					 M194.6,337.6c-1,0-1.6-0.7-1.8-1c-0.3-0.5-0.3-1-0.3-1.1c0,0,0,0,0,0c0.1,0,0.4,0.1,0.9,0.4
					C193.8,336.2,194.2,336.8,194.6,337.6z"/>
			</g>
		</g>
	</g>
	<g>
		<g>
			<path class="st9" d="M220.1,73.8h-41.1c-0.7,0-1.4-0.6-1.4-1.4V49.3c0-0.7,0.6-1.4,1.4-1.4c0.7,0,1.4,0.6,1.4,1.4v21.8h39.7
				c0.7,0,1.4,0.6,1.4,1.4S220.9,73.8,220.1,73.8z"/>
		</g>
		<g>
			<path class="st7" d="M182.7,68.8c-0.2,0-0.4-0.1-0.6-0.2c-0.7-0.4-0.9-1.2-0.5-1.8l6.2-11.3c0.2-0.4,0.7-0.7,1.1-0.7
				c0.5,0,0.9,0.2,1.2,0.6l3.6,5.7l6.7-12.5c0.2-0.5,0.7-0.7,1.2-0.7c0.5,0,1,0.3,1.2,0.8l6.5,13.7l5.7-17c0.2-0.7,1-1.1,1.7-0.9
				c0.7,0.2,1.1,1,0.9,1.7l-6.8,20.2c-0.2,0.5-0.7,0.9-1.2,0.9c-0.5,0-1.1-0.3-1.3-0.8l-6.7-14.3l-6.5,12.2
				c-0.2,0.4-0.7,0.7-1.1,0.7c-0.5,0-0.9-0.2-1.2-0.6l-3.7-5.7l-5.1,9.3C183.6,68.6,183.1,68.8,182.7,68.8z"/>
		</g>
		<g>
			<ellipse class="st10" cx="189.2" cy="55.7" rx="2.6" ry="2.6"/>
		</g>
		<g>
			<ellipse class="st10" cx="216.1" cy="45.8" rx="2.6" ry="2.6"/>
		</g>
		<g>
			<ellipse class="st10" cx="201.3" cy="49.3" rx="2.6" ry="2.6"/>
		</g>
	</g>
</g>
</svg>
