<?xml version="1.0" encoding="utf-8"?>
<!-- Generator: Adobe Illustrator 21.0.0, SVG Export Plug-In . SVG Version: 6.00 Build 0)  -->
<svg version="1.1" id="Layer_1" xmlns="http://www.w3.org/2000/svg" xmlns:xlink="http://www.w3.org/1999/xlink" x="0px" y="0px"
	 viewBox="0 0 140 140" style="enable-background:new 0 0 140 140;" xml:space="preserve">
<style type="text/css">
	.st0{fill:#00A3C9;}
	.st1{fill:#FFE1F8;}
	.st2{fill:#FFFFFF;}
	.st3{fill:#00CCC6;}
	.st4{fill:#113A52;}
</style>
<g>
	<g>
		<path class="st0" d="M79.1,117.4c-25.2,0-45.8-20.5-45.8-45.8c0-25.2,20.5-45.8,45.8-45.8c25.2,0,45.8,20.5,45.8,45.8
			C124.8,96.8,104.3,117.4,79.1,117.4z M79.1,27c-24.6,0-44.6,20-44.6,44.6s20,44.6,44.6,44.6s44.6-20,44.6-44.6S103.7,27,79.1,27z"
			/>
	</g>
	<g>
		<path class="st0" d="M79.3,125h-0.2c-7.1,0-13.9-1.4-20.4-4c-0.3-0.1-0.4-0.5-0.3-0.8c0.1-0.3,0.5-0.4,0.8-0.3
			c6.3,2.6,13.1,4,20,4h0.2c0.3,0,0.6,0.3,0.6,0.6C79.9,124.7,79.6,125,79.3,125z M99.5,120.9c-0.2,0-0.4-0.1-0.5-0.4s0-0.6,0.3-0.8
			c6.3-2.7,12-6.5,16.9-11.4c0.2-0.2,0.6-0.2,0.8,0c0.2,0.2,0.2,0.6,0,0.8c-5,5-10.8,8.9-17.3,11.6
			C99.6,120.9,99.5,120.9,99.5,120.9z M41.7,109.6c-0.1,0-0.3-0.1-0.4-0.2c-5-5-8.9-10.8-11.6-17.3c-0.1-0.3,0-0.6,0.3-0.8
			c0.3-0.1,0.6,0,0.8,0.3c2.6,6.3,6.5,12,11.3,16.9c0.2,0.2,0.2,0.6,0,0.8C42,109.5,41.9,109.6,41.7,109.6z M127.9,92.2
			c-0.1,0-0.1,0-0.2,0c-0.3-0.1-0.4-0.5-0.3-0.8c2.6-6.3,3.9-13,3.9-19.8v-0.2c0-0.3,0.3-0.6,0.6-0.6s0.6,0.3,0.6,0.6v0.2
			c0,7-1.3,13.8-4,20.3C128.4,92.1,128.2,92.2,127.9,92.2z M26.3,72.2c-0.3,0-0.6-0.2-0.6-0.6v-0.1c0-7.1,1.4-13.9,4-20.4
			c0.1-0.3,0.5-0.4,0.8-0.3c0.3,0.1,0.4,0.5,0.3,0.8c-2.6,6.3-3.9,13-3.9,19.9C26.8,71.9,26.6,72.2,26.3,72.2z M127.8,51.8
			c-0.2,0-0.4-0.1-0.5-0.4c-2.6-6.3-6.5-12-11.4-16.9c-0.2-0.2-0.2-0.6,0-0.8s0.6-0.2,0.8,0c5,5,8.9,10.8,11.6,17.3
			c0.1,0.3,0,0.6-0.3,0.8C127.9,51.8,127.9,51.8,127.8,51.8z M41.7,34.9c-0.1,0-0.3-0.1-0.4-0.2c-0.2-0.2-0.2-0.6,0-0.8
			c5-5,10.8-8.9,17.3-11.6c0.3-0.1,0.6,0,0.8,0.3c0.1,0.3,0,0.6-0.3,0.8c-6.3,2.6-12,6.5-16.9,11.4C42,34.9,41.8,34.9,41.7,34.9z
			 M99.2,23.4c-0.1,0-0.1,0-0.2,0c-6.3-2.6-13-3.9-19.9-3.9c-0.3,0-0.6-0.3-0.6-0.6c0-0.3,0.2-0.6,0.5-0.6h0.1c7,0,13.9,1.3,20.3,4
			c0.3,0.1,0.4,0.5,0.3,0.8C99.6,23.2,99.4,23.4,99.2,23.4z"/>
	</g>
	<g>
		<path class="st0" d="M24.8,72.2H2.2c-0.3,0-0.6-0.3-0.6-0.6c0-0.3,0.3-0.6,0.6-0.6h22.5c0.3,0,0.6,0.3,0.6,0.6
			C25.3,71.9,25.1,72.2,24.8,72.2z"/>
	</g>
</g>
<circle class="st1" cx="79" cy="72" r="41"/>
<g>
	<rect x="68.1" y="36.1" class="st2" width="23" height="9.6"/>
	<path class="st3" d="M91.1,53.3v-7.7h-23v7.7c0,5,3.2,9.2,7.7,10.8v16.7c-4.5,1.6-7.7,5.8-7.7,10.8v17.2h23V91.6
		c0-5-3.2-9.2-7.7-10.8V64.1C87.9,62.6,91.1,58.3,91.1,53.3z"/>
	<g>
		<path class="st4" d="M92.3,111.2H67c-0.6,0-1.2-0.5-1.2-1.2V91.6c0-5,2.8-9.6,7-12c0.4-0.2,0.6-0.6,0.6-1V66.4
			c0-0.4-0.2-0.8-0.6-1c-4.3-2.4-7-7-7-12V34.9c0-0.6,0.5-1.2,1.2-1.2h25.3c0.6,0,1.2,0.5,1.2,1.2v18.4c0,5-2.8,9.6-7,12
			c-0.4,0.2-0.6,0.6-0.6,1v12.2c0,0.4,0.2,0.8,0.6,1c4.3,2.4,7,7,7,12V110C93.4,110.7,92.9,111.2,92.3,111.2z M71.6,106.6h16
			c0.6,0,1.2-0.5,1.2-1.2V92.5c0-4.4-2.8-8.3-6.9-9.7l0,0c-0.5-0.2-0.8-0.6-0.8-1.1V63.3c0-0.5,0.3-0.9,0.8-1.1l0,0
			c4.1-1.5,6.9-5.4,6.9-9.7v-13c0-0.6-0.5-1.2-1.2-1.2h-16c-0.6,0-1.2,0.5-1.2,1.2v12.9c0,4.4,2.8,8.3,6.9,9.7l0,0
			c0.5,0.2,0.8,0.6,0.8,1.1v18.3c0,0.5-0.3,0.9-0.8,1.1l0,0c-4.1,1.5-6.9,5.4-6.9,9.7v12.9C70.4,106,71,106.6,71.6,106.6z"/>
	</g>
</g>
</svg>
