<?xml version="1.0" encoding="utf-8"?>
<!-- Generator: Adobe Illustrator 21.0.0, SVG Export Plug-In . SVG Version: 6.00 Build 0)  -->
<svg version="1.1" id="Layer_1" xmlns="http://www.w3.org/2000/svg" xmlns:xlink="http://www.w3.org/1999/xlink" x="0px" y="0px"
	 viewBox="0 0 140 140" style="enable-background:new 0 0 140 140;" xml:space="preserve">
<style type="text/css">
	.st0{fill:#00CCC6;}
	.st1{fill:#FFE1F8;}
	.st2{fill:#FFFFFF;stroke:#113A52;stroke-miterlimit:10;}
	.st3{fill:#FFFFFF;}
	.st4{fill:#113A52;}
	.st5{fill:#00C3B6;}
</style>
<g>
	<g>
		<path class="st0" d="M79.1,117.4c-25.2,0-45.8-20.5-45.8-45.8c0-25.2,20.5-45.8,45.8-45.8c25.2,0,45.8,20.5,45.8,45.8
			C124.8,96.8,104.3,117.4,79.1,117.4z M79.1,27c-24.6,0-44.6,20-44.6,44.6s20,44.6,44.6,44.6s44.6-20,44.6-44.6S103.7,27,79.1,27z"
			/>
	</g>
	<g>
		<path class="st0" d="M79.3,125h-0.2c-7.1,0-13.9-1.4-20.4-4c-0.3-0.1-0.4-0.5-0.3-0.8c0.1-0.3,0.5-0.4,0.8-0.3
			c6.3,2.6,13.1,4,20,4h0.2c0.3,0,0.6,0.3,0.6,0.6C79.9,124.7,79.6,125,79.3,125z M99.5,120.9c-0.2,0-0.4-0.1-0.5-0.4s0-0.6,0.3-0.8
			c6.3-2.7,12-6.5,16.9-11.4c0.2-0.2,0.6-0.2,0.8,0c0.2,0.2,0.2,0.6,0,0.8c-5,5-10.8,8.9-17.3,11.6
			C99.6,120.9,99.5,120.9,99.5,120.9z M41.7,109.6c-0.1,0-0.3-0.1-0.4-0.2c-5-5-8.9-10.8-11.6-17.3c-0.1-0.3,0-0.6,0.3-0.8
			c0.3-0.1,0.6,0,0.8,0.3c2.6,6.3,6.5,12,11.3,16.9c0.2,0.2,0.2,0.6,0,0.8C42,109.5,41.9,109.6,41.7,109.6z M127.9,92.2
			c-0.1,0-0.1,0-0.2,0c-0.3-0.1-0.4-0.5-0.3-0.8c2.6-6.3,3.9-13,3.9-19.8v-0.2c0-0.3,0.3-0.6,0.6-0.6s0.6,0.3,0.6,0.6v0.2
			c0,7-1.3,13.8-4,20.3C128.4,92.1,128.2,92.2,127.9,92.2z M26.3,72.2c-0.3,0-0.6-0.2-0.6-0.6v-0.1c0-7.1,1.4-13.9,4-20.4
			c0.1-0.3,0.5-0.4,0.8-0.3c0.3,0.1,0.4,0.5,0.3,0.8c-2.6,6.3-3.9,13-3.9,19.9C26.8,71.9,26.6,72.2,26.3,72.2z M127.8,51.8
			c-0.2,0-0.4-0.1-0.5-0.4c-2.6-6.3-6.5-12-11.4-16.9c-0.2-0.2-0.2-0.6,0-0.8s0.6-0.2,0.8,0c5,5,8.9,10.8,11.6,17.3
			c0.1,0.3,0,0.6-0.3,0.8C127.9,51.8,127.9,51.8,127.8,51.8z M41.7,34.9c-0.1,0-0.3-0.1-0.4-0.2c-0.2-0.2-0.2-0.6,0-0.8
			c5-5,10.8-8.9,17.3-11.6c0.3-0.1,0.6,0,0.8,0.3c0.1,0.3,0,0.6-0.3,0.8c-6.3,2.6-12,6.5-16.9,11.4C42,34.9,41.8,34.9,41.7,34.9z
			 M99.2,23.4c-0.1,0-0.1,0-0.2,0c-6.3-2.6-13-3.9-19.9-3.9c-0.3,0-0.6-0.3-0.6-0.6c0-0.3,0.2-0.6,0.5-0.6h0.1c7,0,13.9,1.3,20.3,4
			c0.3,0.1,0.4,0.5,0.3,0.8C99.6,23.2,99.4,23.4,99.2,23.4z"/>
	</g>
	<g>
		<path class="st0" d="M24.8,72.2H2.2c-0.3,0-0.6-0.3-0.6-0.6c0-0.3,0.3-0.6,0.6-0.6h22.5c0.3,0,0.6,0.3,0.6,0.6
			C25.3,71.9,25.1,72.2,24.8,72.2z"/>
	</g>
</g>
<circle class="st1" cx="79" cy="72" r="41"/>
<g>
	<rect x="46.3" y="66.1" class="st2" width="15.4" height="33.7"/>
	<rect x="70.8" y="57.7" class="st2" width="15.4" height="42.1"/>
	<rect x="95.3" y="45.9" class="st2" width="15.4" height="53.9"/>
</g>
<g>
	
		<ellipse transform="matrix(0.7071 -0.7071 0.7071 0.7071 -27.0373 76.5084)" class="st3" cx="78.8" cy="70.9" rx="16.3" ry="16.3"/>
	<g>
		<path class="st4" d="M91.6,83.6c-7,7-18.4,7-25.4,0s-7-18.4,0-25.4s18.4-7,25.4,0S98.6,76.5,91.6,83.6z M68.5,60.5
			c-5.7,5.7-5.7,15,0,20.7s15,5.7,20.7,0s5.7-15,0-20.7C83.5,54.8,74.2,54.8,68.5,60.5z"/>
	</g>
	<path class="st5" d="M87.8,79.8c-5,5-13,5-18,0c-5-5-5-13,0-18c5-5,13-5,18,0S92.7,74.9,87.8,79.8z"/>
	<g>
		<path class="st4" d="M119.8,106.6l-5.2,5.2c-0.7,0.7-1.7,0.6-2.4,0L96.9,96.4c-0.7-0.7-0.6-1.7,0-2.4l5.2-5.2
			c0.7-0.7,1.7-0.6,2.4,0l15.4,15.4C120.4,104.9,120.4,106,119.8,106.6z M113.5,108.2l2.8-2.8l-13-13l-2.7,2.7L113.5,108.2
			L113.5,108.2z"/>
	</g>
	<g>
		
			<rect x="93.8" y="80.3" transform="matrix(0.7071 -0.7071 0.7071 0.7071 -33.9385 93.1694)" class="st4" width="3.3" height="14.5"/>
	</g>
	
		<rect x="106.8" y="91.9" transform="matrix(0.7071 -0.7071 0.7071 0.7071 -39.8485 105.77)" class="st3" width="1.8" height="18.2"/>
	
		<rect x="108.1" y="90.7" transform="matrix(0.7071 -0.7071 0.7071 0.7071 -38.6075 106.284)" class="st3" width="1.8" height="18.2"/>
</g>
</svg>
